<svg width="511" height="240" viewBox="0 0 511 240" fill="none" xmlns="http://www.w3.org/2000/svg">
<rect width="511" height="240" fill="white"/>
<rect x="124.5" y="26.6863" width="62" height="34" rx="2.5" fill="#E5E5E5" stroke="black"/>
<rect x="333.5" y="25.6863" width="84" height="34" rx="2.5" fill="#E5E5E5" stroke="black"/>
<path d="M149.996 38.655V44.4558C149.992 45.2605 149.738 45.9187 149.234 46.4304C148.734 46.9421 148.055 47.2292 147.195 47.2917L146.896 47.3035C145.963 47.3035 145.219 47.0515 144.664 46.5476C144.109 46.0437 143.828 45.3503 143.82 44.4675V38.655H144.934V44.4324C144.934 45.0496 145.104 45.53 145.443 45.8738C145.783 46.2136 146.268 46.3835 146.896 46.3835C147.533 46.3835 148.02 46.2136 148.355 45.8738C148.695 45.5339 148.865 45.0554 148.865 44.4382V38.655H149.996ZM155.293 45.5046C155.293 45.2117 155.182 44.9851 154.959 44.825C154.74 44.6609 154.355 44.5203 153.805 44.4031C153.258 44.2859 152.822 44.1453 152.498 43.9812C152.178 43.8171 151.939 43.6218 151.783 43.3953C151.631 43.1687 151.555 42.8992 151.555 42.5867C151.555 42.0671 151.773 41.6277 152.211 41.2683C152.652 40.9089 153.215 40.7292 153.898 40.7292C154.617 40.7292 155.199 40.9148 155.645 41.2859C156.094 41.657 156.318 42.1316 156.318 42.7097H155.229C155.229 42.4128 155.102 42.157 154.848 41.9421C154.598 41.7273 154.281 41.6199 153.898 41.6199C153.504 41.6199 153.195 41.7058 152.973 41.8777C152.75 42.0496 152.639 42.2742 152.639 42.5515C152.639 42.8132 152.742 43.0105 152.949 43.1433C153.156 43.2761 153.529 43.4031 154.068 43.5242C154.611 43.6453 155.051 43.7898 155.387 43.9578C155.723 44.1257 155.971 44.3289 156.131 44.5671C156.295 44.8015 156.377 45.0886 156.377 45.4285C156.377 45.9949 156.15 46.45 155.697 46.7937C155.244 47.1335 154.656 47.3035 153.934 47.3035C153.426 47.3035 152.977 47.2136 152.586 47.0339C152.195 46.8542 151.889 46.6042 151.666 46.2839C151.447 45.9597 151.338 45.6101 151.338 45.2351H152.422C152.441 45.5984 152.586 45.8875 152.855 46.1023C153.129 46.3132 153.488 46.4187 153.934 46.4187C154.344 46.4187 154.672 46.3367 154.918 46.1726C155.168 46.0046 155.293 45.782 155.293 45.5046ZM160.42 47.3035C159.561 47.3035 158.861 47.0222 158.322 46.4597C157.783 45.8933 157.514 45.1375 157.514 44.1921V43.9929C157.514 43.364 157.633 42.8035 157.871 42.3113C158.113 41.8152 158.449 41.4285 158.879 41.1511C159.312 40.8699 159.781 40.7292 160.285 40.7292C161.109 40.7292 161.75 41.0007 162.207 41.5437C162.664 42.0867 162.893 42.864 162.893 43.8757V44.3269H158.598C158.613 44.9519 158.795 45.4578 159.143 45.8445C159.494 46.2273 159.939 46.4187 160.479 46.4187C160.861 46.4187 161.186 46.3406 161.451 46.1843C161.717 46.0281 161.949 45.821 162.148 45.5632L162.811 46.0789C162.279 46.8953 161.482 47.3035 160.42 47.3035ZM160.285 41.6199C159.848 41.6199 159.48 41.78 159.184 42.1003C158.887 42.4167 158.703 42.8621 158.633 43.4363H161.809V43.3542C161.777 42.8035 161.629 42.3777 161.363 42.0769C161.098 41.7722 160.738 41.6199 160.285 41.6199ZM167.217 41.8191C167.053 41.7917 166.875 41.7781 166.684 41.7781C165.973 41.7781 165.49 42.0808 165.236 42.6863V47.1863H164.152V40.8464H165.207L165.225 41.5789C165.58 41.0125 166.084 40.7292 166.736 40.7292C166.947 40.7292 167.107 40.7566 167.217 40.8113V41.8191Z" fill="black"/>
<path d="M73.998 40.1863H72.9141V33.8464H73.998V40.1863ZM72.8262 32.1648C72.8262 31.989 72.8789 31.8406 72.9844 31.7195C73.0938 31.5984 73.2539 31.5378 73.4648 31.5378C73.6758 31.5378 73.8359 31.5984 73.9453 31.7195C74.0547 31.8406 74.1094 31.989 74.1094 32.1648C74.1094 32.3406 74.0547 32.4871 73.9453 32.6042C73.8359 32.7214 73.6758 32.78 73.4648 32.78C73.2539 32.78 73.0938 32.7214 72.9844 32.6042C72.8789 32.4871 72.8262 32.3406 72.8262 32.1648ZM75.4746 36.9636C75.4746 35.991 75.7051 35.2097 76.166 34.6199C76.627 34.0261 77.2305 33.7292 77.9766 33.7292C78.7188 33.7292 79.3066 33.9832 79.7402 34.491V31.1863H80.8242V40.1863H79.8281L79.7754 39.5066C79.3418 40.0378 78.7383 40.3035 77.9648 40.3035C77.2305 40.3035 76.6309 40.0027 76.166 39.4011C75.7051 38.7996 75.4746 38.0144 75.4746 37.0457V36.9636ZM76.5586 37.0867C76.5586 37.8054 76.707 38.3679 77.0039 38.7742C77.3008 39.1804 77.7109 39.3835 78.2344 39.3835C78.9219 39.3835 79.4238 39.075 79.7402 38.4578V35.5457C79.416 34.948 78.918 34.6492 78.2461 34.6492C77.7148 34.6492 77.3008 34.8542 77.0039 35.2644C76.707 35.6746 76.5586 36.282 76.5586 37.0867Z" fill="black"/>
<path d="M55.4512 55.3035C54.5918 55.3035 53.8926 55.0222 53.3535 54.4597C52.8145 53.8933 52.5449 53.1375 52.5449 52.1921V51.9929C52.5449 51.364 52.6641 50.8035 52.9023 50.3113C53.1445 49.8152 53.4805 49.4285 53.9102 49.1511C54.3438 48.8699 54.8125 48.7292 55.3164 48.7292C56.1406 48.7292 56.7812 49.0007 57.2383 49.5437C57.6953 50.0867 57.9238 50.864 57.9238 51.8757V52.3269H53.6289C53.6445 52.9519 53.8262 53.4578 54.1738 53.8445C54.5254 54.2273 54.9707 54.4187 55.5098 54.4187C55.8926 54.4187 56.2168 54.3406 56.4824 54.1843C56.748 54.0281 56.9805 53.821 57.1797 53.5632L57.8418 54.0789C57.3105 54.8953 56.5137 55.3035 55.4512 55.3035ZM55.3164 49.6199C54.8789 49.6199 54.5117 49.78 54.2148 50.1003C53.918 50.4167 53.7344 50.8621 53.6641 51.4363H56.8398V51.3542C56.8086 50.8035 56.6602 50.3777 56.3945 50.0769C56.1289 49.7722 55.7695 49.6199 55.3164 49.6199ZM60.2031 48.8464L60.2324 49.5496C60.6973 49.0027 61.3242 48.7292 62.1133 48.7292C63 48.7292 63.6035 49.0691 63.9238 49.7488C64.1348 49.4441 64.4082 49.198 64.7441 49.0105C65.084 48.823 65.4844 48.7292 65.9453 48.7292C67.3359 48.7292 68.043 49.4656 68.0664 50.9382V55.1863H66.9824V51.0027C66.9824 50.5496 66.8789 50.2117 66.6719 49.989C66.4648 49.7625 66.1172 49.6492 65.6289 49.6492C65.2266 49.6492 64.8926 49.7703 64.627 50.0125C64.3613 50.2507 64.207 50.573 64.1641 50.9792V55.1863H63.0742V51.032C63.0742 50.1101 62.623 49.6492 61.7207 49.6492C61.0098 49.6492 60.5234 49.9519 60.2617 50.5574V55.1863H59.1777V48.8464H60.2031ZM73.6211 55.1863C73.5586 55.0613 73.5078 54.8386 73.4688 54.5183C72.9648 55.0417 72.3633 55.3035 71.6641 55.3035C71.0391 55.3035 70.5254 55.1277 70.123 54.7761C69.7246 54.4207 69.5254 53.9714 69.5254 53.4285C69.5254 52.7683 69.7754 52.2566 70.2754 51.8933C70.7793 51.5261 71.4863 51.3425 72.3965 51.3425H73.4512V50.8445C73.4512 50.4656 73.3379 50.1648 73.1113 49.9421C72.8848 49.7156 72.5508 49.6023 72.1094 49.6023C71.7227 49.6023 71.3984 49.7 71.1367 49.8953C70.875 50.0906 70.7441 50.3269 70.7441 50.6042H69.6543C69.6543 50.2878 69.7656 49.9832 69.9883 49.6902C70.2148 49.3933 70.5195 49.1589 70.9023 48.9871C71.2891 48.8152 71.7129 48.7292 72.1738 48.7292C72.9043 48.7292 73.4766 48.9128 73.8906 49.28C74.3047 49.6433 74.5195 50.1453 74.5352 50.7859V53.7039C74.5352 54.2859 74.6094 54.7488 74.7578 55.0925V55.1863H73.6211ZM71.8223 54.3601C72.1621 54.3601 72.4844 54.2722 72.7891 54.0964C73.0938 53.9207 73.3145 53.6921 73.4512 53.4109V52.1101H72.6016C71.2734 52.1101 70.6094 52.4988 70.6094 53.2761C70.6094 53.616 70.7227 53.8816 70.9492 54.073C71.1758 54.2644 71.4668 54.3601 71.8223 54.3601ZM77.4121 55.1863H76.3281V48.8464H77.4121V55.1863ZM76.2402 47.1648C76.2402 46.989 76.293 46.8406 76.3984 46.7195C76.5078 46.5984 76.668 46.5378 76.8789 46.5378C77.0898 46.5378 77.25 46.5984 77.3594 46.7195C77.4688 46.8406 77.5234 46.989 77.5234 47.1648C77.5234 47.3406 77.4688 47.4871 77.3594 47.6042C77.25 47.7214 77.0898 47.78 76.8789 47.78C76.668 47.78 76.5078 47.7214 76.3984 47.6042C76.293 47.4871 76.2402 47.3406 76.2402 47.1648ZM80.3301 55.1863H79.2461V46.1863H80.3301V55.1863Z" fill="black"/>
<path d="M34.1758 67.0867C34.1758 68.0515 33.9551 68.8289 33.5137 69.4187C33.0723 70.0085 32.4746 70.3035 31.7207 70.3035C30.9512 70.3035 30.3457 70.0593 29.9043 69.571V72.6238H28.8203V63.8464H29.8105L29.8633 64.5496C30.3047 64.0027 30.918 63.7292 31.7031 63.7292C32.4648 63.7292 33.0664 64.0164 33.5078 64.5906C33.9531 65.1648 34.1758 65.9636 34.1758 66.9871V67.0867ZM33.0918 66.9636C33.0918 66.2488 32.9395 65.6843 32.6348 65.2703C32.3301 64.8562 31.9121 64.6492 31.3809 64.6492C30.7246 64.6492 30.2324 64.9402 29.9043 65.5222V68.5515C30.2285 69.1296 30.7246 69.4187 31.3926 69.4187C31.9121 69.4187 32.3242 69.2136 32.6289 68.8035C32.9375 68.3894 33.0918 67.7761 33.0918 66.9636ZM39.4727 70.1863C39.4102 70.0613 39.3594 69.8386 39.3203 69.5183C38.8164 70.0417 38.2148 70.3035 37.5156 70.3035C36.8906 70.3035 36.377 70.1277 35.9746 69.7761C35.5762 69.4207 35.377 68.9714 35.377 68.4285C35.377 67.7683 35.627 67.2566 36.127 66.8933C36.6309 66.5261 37.3379 66.3425 38.248 66.3425H39.3027V65.8445C39.3027 65.4656 39.1895 65.1648 38.9629 64.9421C38.7363 64.7156 38.4023 64.6023 37.9609 64.6023C37.5742 64.6023 37.25 64.7 36.9883 64.8953C36.7266 65.0906 36.5957 65.3269 36.5957 65.6042H35.5059C35.5059 65.2878 35.6172 64.9832 35.8398 64.6902C36.0664 64.3933 36.3711 64.1589 36.7539 63.9871C37.1406 63.8152 37.5645 63.7292 38.0254 63.7292C38.7559 63.7292 39.3281 63.9128 39.7422 64.28C40.1562 64.6433 40.3711 65.1453 40.3867 65.7859V68.7039C40.3867 69.2859 40.4609 69.7488 40.6094 70.0925V70.1863H39.4727ZM37.6738 69.3601C38.0137 69.3601 38.3359 69.2722 38.6406 69.0964C38.9453 68.9207 39.166 68.6921 39.3027 68.4109V67.1101H38.4531C37.125 67.1101 36.4609 67.4988 36.4609 68.2761C36.4609 68.616 36.5742 68.8816 36.8008 69.073C37.0273 69.2644 37.3184 69.3601 37.6738 69.3601ZM45.7773 68.5046C45.7773 68.2117 45.666 67.9851 45.4434 67.825C45.2246 67.6609 44.8398 67.5203 44.2891 67.4031C43.7422 67.2859 43.3066 67.1453 42.9824 66.9812C42.6621 66.8171 42.4238 66.6218 42.2676 66.3953C42.1152 66.1687 42.0391 65.8992 42.0391 65.5867C42.0391 65.0671 42.2578 64.6277 42.6953 64.2683C43.1367 63.9089 43.6992 63.7292 44.3828 63.7292C45.1016 63.7292 45.6836 63.9148 46.1289 64.2859C46.5781 64.657 46.8027 65.1316 46.8027 65.7097H45.7129C45.7129 65.4128 45.5859 65.157 45.332 64.9421C45.082 64.7273 44.7656 64.6199 44.3828 64.6199C43.9883 64.6199 43.6797 64.7058 43.457 64.8777C43.2344 65.0496 43.123 65.2742 43.123 65.5515C43.123 65.8132 43.2266 66.0105 43.4336 66.1433C43.6406 66.2761 44.0137 66.4031 44.5527 66.5242C45.0957 66.6453 45.5352 66.7898 45.8711 66.9578C46.207 67.1257 46.4551 67.3289 46.6152 67.5671C46.7793 67.8015 46.8613 68.0886 46.8613 68.4285C46.8613 68.9949 46.6348 69.45 46.1816 69.7937C45.7285 70.1335 45.1406 70.3035 44.418 70.3035C43.9102 70.3035 43.4609 70.2136 43.0703 70.0339C42.6797 69.8542 42.373 69.6042 42.1504 69.2839C41.9316 68.9597 41.8223 68.6101 41.8223 68.2351H42.9062C42.9258 68.5984 43.0703 68.8875 43.3398 69.1023C43.6133 69.3132 43.9727 69.4187 44.418 69.4187C44.8281 69.4187 45.1562 69.3367 45.4023 69.1726C45.6523 69.0046 45.7773 68.782 45.7773 68.5046ZM51.9648 68.5046C51.9648 68.2117 51.8535 67.9851 51.6309 67.825C51.4121 67.6609 51.0273 67.5203 50.4766 67.4031C49.9297 67.2859 49.4941 67.1453 49.1699 66.9812C48.8496 66.8171 48.6113 66.6218 48.4551 66.3953C48.3027 66.1687 48.2266 65.8992 48.2266 65.5867C48.2266 65.0671 48.4453 64.6277 48.8828 64.2683C49.3242 63.9089 49.8867 63.7292 50.5703 63.7292C51.2891 63.7292 51.8711 63.9148 52.3164 64.2859C52.7656 64.657 52.9902 65.1316 52.9902 65.7097H51.9004C51.9004 65.4128 51.7734 65.157 51.5195 64.9421C51.2695 64.7273 50.9531 64.6199 50.5703 64.6199C50.1758 64.6199 49.8672 64.7058 49.6445 64.8777C49.4219 65.0496 49.3105 65.2742 49.3105 65.5515C49.3105 65.8132 49.4141 66.0105 49.6211 66.1433C49.8281 66.2761 50.2012 66.4031 50.7402 66.5242C51.2832 66.6453 51.7227 66.7898 52.0586 66.9578C52.3945 67.1257 52.6426 67.3289 52.8027 67.5671C52.9668 67.8015 53.0488 68.0886 53.0488 68.4285C53.0488 68.9949 52.8223 69.45 52.3691 69.7937C51.916 70.1335 51.3281 70.3035 50.6055 70.3035C50.0977 70.3035 49.6484 70.2136 49.2578 70.0339C48.8672 69.8542 48.5605 69.6042 48.3379 69.2839C48.1191 68.9597 48.0098 68.6101 48.0098 68.2351H49.0938C49.1133 68.5984 49.2578 68.8875 49.5273 69.1023C49.8008 69.3132 50.1602 69.4187 50.6055 69.4187C51.0156 69.4187 51.3438 69.3367 51.5898 69.1726C51.8398 69.0046 51.9648 68.782 51.9648 68.5046ZM60.0742 68.6921L61.293 63.8464H62.377L60.5312 70.1863H59.6523L58.1113 65.3816L56.6113 70.1863H55.7324L53.8926 63.8464H54.9707L56.2188 68.5925L57.6953 63.8464H58.5684L60.0742 68.6921ZM63.1973 66.9578C63.1973 66.3367 63.3184 65.7781 63.5605 65.282C63.8066 64.7859 64.1465 64.4031 64.5801 64.1335C65.0176 63.864 65.5156 63.7292 66.0742 63.7292C66.9375 63.7292 67.6348 64.0281 68.166 64.6257C68.7012 65.2234 68.9688 66.0183 68.9688 67.0105V67.0867C68.9688 67.7039 68.8496 68.2585 68.6113 68.7507C68.377 69.239 68.0391 69.6199 67.5977 69.8933C67.1602 70.1667 66.6562 70.3035 66.0859 70.3035C65.2266 70.3035 64.5293 70.0046 63.9941 69.407C63.4629 68.8093 63.1973 68.0183 63.1973 67.0339V66.9578ZM64.2871 67.0867C64.2871 67.7898 64.4492 68.3542 64.7734 68.78C65.1016 69.2058 65.5391 69.4187 66.0859 69.4187C66.6367 69.4187 67.0742 69.2039 67.3984 68.7742C67.7227 68.3406 67.8848 67.7351 67.8848 66.9578C67.8848 66.2625 67.7188 65.7 67.3867 65.2703C67.0586 64.8367 66.6211 64.6199 66.0742 64.6199C65.5391 64.6199 65.1074 64.8328 64.7793 65.2585C64.4512 65.6843 64.2871 66.2937 64.2871 67.0867ZM73.3926 64.8191C73.2285 64.7917 73.0508 64.7781 72.8594 64.7781C72.1484 64.7781 71.666 65.0808 71.4121 65.6863V70.1863H70.3281V63.8464H71.3828L71.4004 64.5789C71.7559 64.0125 72.2598 63.7292 72.9121 63.7292C73.123 63.7292 73.2832 63.7566 73.3926 63.8113V64.8191ZM74.0137 66.9636C74.0137 65.991 74.2441 65.2097 74.7051 64.6199C75.166 64.0261 75.7695 63.7292 76.5156 63.7292C77.2578 63.7292 77.8457 63.9832 78.2793 64.491V61.1863H79.3633V70.1863H78.3672L78.3145 69.5066C77.8809 70.0378 77.2773 70.3035 76.5039 70.3035C75.7695 70.3035 75.1699 70.0027 74.7051 69.4011C74.2441 68.7996 74.0137 68.0144 74.0137 67.0457V66.9636ZM75.0977 67.0867C75.0977 67.8054 75.2461 68.3679 75.543 68.7742C75.8398 69.1804 76.25 69.3835 76.7734 69.3835C77.4609 69.3835 77.9629 69.075 78.2793 68.4578V65.5457C77.9551 64.948 77.457 64.6492 76.7852 64.6492C76.2539 64.6492 75.8398 64.8542 75.543 65.2644C75.2461 65.6746 75.0977 66.282 75.0977 67.0867Z" fill="black"/>
<path d="M51.998 84.1863H50.9141V77.8464H51.998V84.1863ZM50.8262 76.1648C50.8262 75.989 50.8789 75.8406 50.9844 75.7195C51.0938 75.5984 51.2539 75.5378 51.4648 75.5378C51.6758 75.5378 51.8359 75.5984 51.9453 75.7195C52.0547 75.8406 52.1094 75.989 52.1094 76.1648C52.1094 76.3406 52.0547 76.4871 51.9453 76.6042C51.8359 76.7214 51.6758 76.78 51.4648 76.78C51.2539 76.78 51.0938 76.7214 50.9844 76.6042C50.8789 76.4871 50.8262 76.3406 50.8262 76.1648ZM54.7637 77.8464L54.7988 78.6433C55.2832 78.0339 55.916 77.7292 56.6973 77.7292C58.0371 77.7292 58.7129 78.4851 58.7246 79.9968V84.1863H57.6406V79.991C57.6367 79.5339 57.5312 79.196 57.3242 78.9773C57.1211 78.7585 56.8027 78.6492 56.3691 78.6492C56.0176 78.6492 55.709 78.7429 55.4434 78.9304C55.1777 79.1179 54.9707 79.364 54.8223 79.6687V84.1863H53.7383V77.8464H54.7637ZM64.0508 82.5046C64.0508 82.2117 63.9395 81.9851 63.7168 81.825C63.498 81.6609 63.1133 81.5203 62.5625 81.4031C62.0156 81.2859 61.5801 81.1453 61.2559 80.9812C60.9355 80.8171 60.6973 80.6218 60.541 80.3953C60.3887 80.1687 60.3125 79.8992 60.3125 79.5867C60.3125 79.0671 60.5312 78.6277 60.9688 78.2683C61.4102 77.9089 61.9727 77.7292 62.6562 77.7292C63.375 77.7292 63.957 77.9148 64.4023 78.2859C64.8516 78.657 65.0762 79.1316 65.0762 79.7097H63.9863C63.9863 79.4128 63.8594 79.157 63.6055 78.9421C63.3555 78.7273 63.0391 78.6199 62.6562 78.6199C62.2617 78.6199 61.9531 78.7058 61.7305 78.8777C61.5078 79.0496 61.3965 79.2742 61.3965 79.5515C61.3965 79.8132 61.5 80.0105 61.707 80.1433C61.9141 80.2761 62.2871 80.4031 62.8262 80.5242C63.3691 80.6453 63.8086 80.7898 64.1445 80.9578C64.4805 81.1257 64.7285 81.3289 64.8887 81.5671C65.0527 81.8015 65.1348 82.0886 65.1348 82.4285C65.1348 82.9949 64.9082 83.45 64.4551 83.7937C64.002 84.1335 63.4141 84.3035 62.6914 84.3035C62.1836 84.3035 61.7344 84.2136 61.3438 84.0339C60.9531 83.8542 60.6465 83.6042 60.4238 83.2839C60.2051 82.9597 60.0957 82.6101 60.0957 82.2351H61.1797C61.1992 82.5984 61.3438 82.8875 61.6133 83.1023C61.8867 83.3132 62.2461 83.4187 62.6914 83.4187C63.1016 83.4187 63.4297 83.3367 63.6758 83.1726C63.9258 83.0046 64.0508 82.782 64.0508 82.5046ZM71.1172 85.071H65.75V84.1863H71.1172V85.071ZM73.4316 76.3113V77.8464H74.6152V78.6843H73.4316V82.616C73.4316 82.8699 73.4844 83.0613 73.5898 83.1902C73.6953 83.3152 73.875 83.3777 74.1289 83.3777C74.2539 83.3777 74.4258 83.3542 74.6445 83.3074V84.1863C74.3594 84.2644 74.082 84.3035 73.8125 84.3035C73.3281 84.3035 72.9629 84.157 72.7168 83.864C72.4707 83.571 72.3477 83.155 72.3477 82.616V78.6843H71.1934V77.8464H72.3477V76.3113H73.4316ZM79.5781 82.5046C79.5781 82.2117 79.4668 81.9851 79.2441 81.825C79.0254 81.6609 78.6406 81.5203 78.0898 81.4031C77.543 81.2859 77.1074 81.1453 76.7832 80.9812C76.4629 80.8171 76.2246 80.6218 76.0684 80.3953C75.916 80.1687 75.8398 79.8992 75.8398 79.5867C75.8398 79.0671 76.0586 78.6277 76.4961 78.2683C76.9375 77.9089 77.5 77.7292 78.1836 77.7292C78.9023 77.7292 79.4844 77.9148 79.9297 78.2859C80.3789 78.657 80.6035 79.1316 80.6035 79.7097H79.5137C79.5137 79.4128 79.3867 79.157 79.1328 78.9421C78.8828 78.7273 78.5664 78.6199 78.1836 78.6199C77.7891 78.6199 77.4805 78.7058 77.2578 78.8777C77.0352 79.0496 76.9238 79.2742 76.9238 79.5515C76.9238 79.8132 77.0273 80.0105 77.2344 80.1433C77.4414 80.2761 77.8145 80.4031 78.3535 80.5242C78.8965 80.6453 79.3359 80.7898 79.6719 80.9578C80.0078 81.1257 80.2559 81.3289 80.416 81.5671C80.5801 81.8015 80.6621 82.0886 80.6621 82.4285C80.6621 82.9949 80.4355 83.45 79.9824 83.7937C79.5293 84.1335 78.9414 84.3035 78.2188 84.3035C77.7109 84.3035 77.2617 84.2136 76.8711 84.0339C76.4805 83.8542 76.1738 83.6042 75.9512 83.2839C75.7324 82.9597 75.623 82.6101 75.623 82.2351H76.707C76.7266 82.5984 76.8711 82.8875 77.1406 83.1023C77.4141 83.3132 77.7734 83.4187 78.2188 83.4187C78.6289 83.4187 78.957 83.3367 79.2031 83.1726C79.4531 83.0046 79.5781 82.782 79.5781 82.5046Z" fill="black"/>
<path d="M49.7344 97.5593C49.3125 98.0554 48.6934 98.3035 47.877 98.3035C47.2012 98.3035 46.6855 98.1082 46.3301 97.7175C45.9785 97.323 45.8008 96.741 45.7969 95.9714V91.8464H46.8809V95.9421C46.8809 96.9031 47.2715 97.3835 48.0527 97.3835C48.8809 97.3835 49.4316 97.075 49.7051 96.4578V91.8464H50.7891V98.1863H49.7578L49.7344 97.5593ZM57.7969 95.0867C57.7969 96.0515 57.5762 96.8289 57.1348 97.4187C56.6934 98.0085 56.0957 98.3035 55.3418 98.3035C54.5723 98.3035 53.9668 98.0593 53.5254 97.571V100.624H52.4414V91.8464H53.4316L53.4844 92.5496C53.9258 92.0027 54.5391 91.7292 55.3242 91.7292C56.0859 91.7292 56.6875 92.0164 57.1289 92.5906C57.5742 93.1648 57.7969 93.9636 57.7969 94.9871V95.0867ZM56.7129 94.9636C56.7129 94.2488 56.5605 93.6843 56.2559 93.2703C55.9512 92.8562 55.5332 92.6492 55.002 92.6492C54.3457 92.6492 53.8535 92.9402 53.5254 93.5222V96.5515C53.8496 97.1296 54.3457 97.4187 55.0137 97.4187C55.5332 97.4187 55.9453 97.2136 56.25 96.8035C56.5586 96.3894 56.7129 95.7761 56.7129 94.9636ZM58.916 94.9636C58.916 93.991 59.1465 93.2097 59.6074 92.6199C60.0684 92.0261 60.6719 91.7292 61.418 91.7292C62.1602 91.7292 62.748 91.9832 63.1816 92.491V89.1863H64.2656V98.1863H63.2695L63.2168 97.5066C62.7832 98.0378 62.1797 98.3035 61.4062 98.3035C60.6719 98.3035 60.0723 98.0027 59.6074 97.4011C59.1465 96.7996 58.916 96.0144 58.916 95.0457V94.9636ZM60 95.0867C60 95.8054 60.1484 96.3679 60.4453 96.7742C60.7422 97.1804 61.1523 97.3835 61.6758 97.3835C62.3633 97.3835 62.8652 97.075 63.1816 96.4578V93.5457C62.8574 92.948 62.3594 92.6492 61.6875 92.6492C61.1562 92.6492 60.7422 92.8542 60.4453 93.2644C60.1484 93.6746 60 94.282 60 95.0867ZM70.5234 99.071H65.1562V98.1863H70.5234V99.071ZM72.8379 90.3113V91.8464H74.0215V92.6843H72.8379V96.616C72.8379 96.8699 72.8906 97.0613 72.9961 97.1902C73.1016 97.3152 73.2812 97.3777 73.5352 97.3777C73.6602 97.3777 73.832 97.3542 74.0508 97.3074V98.1863C73.7656 98.2644 73.4883 98.3035 73.2188 98.3035C72.7344 98.3035 72.3691 98.157 72.123 97.864C71.877 97.571 71.7539 97.155 71.7539 96.616V92.6843H70.5996V91.8464H71.7539V90.3113H72.8379ZM78.9844 96.5046C78.9844 96.2117 78.873 95.9851 78.6504 95.825C78.4316 95.6609 78.0469 95.5203 77.4961 95.4031C76.9492 95.2859 76.5137 95.1453 76.1895 94.9812C75.8691 94.8171 75.6309 94.6218 75.4746 94.3953C75.3223 94.1687 75.2461 93.8992 75.2461 93.5867C75.2461 93.0671 75.4648 92.6277 75.9023 92.2683C76.3438 91.9089 76.9062 91.7292 77.5898 91.7292C78.3086 91.7292 78.8906 91.9148 79.3359 92.2859C79.7852 92.657 80.0098 93.1316 80.0098 93.7097H78.9199C78.9199 93.4128 78.793 93.157 78.5391 92.9421C78.2891 92.7273 77.9727 92.6199 77.5898 92.6199C77.1953 92.6199 76.8867 92.7058 76.6641 92.8777C76.4414 93.0496 76.3301 93.2742 76.3301 93.5515C76.3301 93.8132 76.4336 94.0105 76.6406 94.1433C76.8477 94.2761 77.2207 94.4031 77.7598 94.5242C78.3027 94.6453 78.7422 94.7898 79.0781 94.9578C79.4141 95.1257 79.6621 95.3289 79.8223 95.5671C79.9863 95.8015 80.0684 96.0886 80.0684 96.4285C80.0684 96.9949 79.8418 97.45 79.3887 97.7937C78.9355 98.1335 78.3477 98.3035 77.625 98.3035C77.1172 98.3035 76.668 98.2136 76.2773 98.0339C75.8867 97.8542 75.5801 97.6042 75.3574 97.2839C75.1387 96.9597 75.0293 96.6101 75.0293 96.2351H76.1133C76.1328 96.5984 76.2773 96.8875 76.5469 97.1023C76.8203 97.3132 77.1797 97.4187 77.625 97.4187C78.0352 97.4187 78.3633 97.3367 78.6094 97.1726C78.8594 97.0046 78.9844 96.782 78.9844 96.5046Z" fill="black"/>
<circle cx="89.5" cy="35.6863" r="3.5" fill="black"/>
<line x1="91" y1="35.6863" x2="124" y2="35.6863" stroke="black"/>
<circle cx="89.5" cy="50.6863" r="3" stroke="black"/>
<line x1="92" y1="50.6863" x2="124" y2="50.6863" stroke="black"/>
<path d="M462.846 42.8464L462.881 43.6433C463.365 43.0339 463.998 42.7292 464.779 42.7292C466.119 42.7292 466.795 43.4851 466.807 44.9968V49.1863H465.723V44.991C465.719 44.5339 465.613 44.196 465.406 43.9773C465.203 43.7585 464.885 43.6492 464.451 43.6492C464.1 43.6492 463.791 43.7429 463.525 43.9304C463.26 44.1179 463.053 44.364 462.904 44.6687V49.1863H461.82V42.8464H462.846ZM472.355 49.1863C472.293 49.0613 472.242 48.8386 472.203 48.5183C471.699 49.0417 471.098 49.3035 470.398 49.3035C469.773 49.3035 469.26 49.1277 468.857 48.7761C468.459 48.4207 468.26 47.9714 468.26 47.4285C468.26 46.7683 468.51 46.2566 469.01 45.8933C469.514 45.5261 470.221 45.3425 471.131 45.3425H472.186V44.8445C472.186 44.4656 472.072 44.1648 471.846 43.9421C471.619 43.7156 471.285 43.6023 470.844 43.6023C470.457 43.6023 470.133 43.7 469.871 43.8953C469.609 44.0906 469.479 44.3269 469.479 44.6042H468.389C468.389 44.2878 468.5 43.9832 468.723 43.6902C468.949 43.3933 469.254 43.1589 469.637 42.9871C470.023 42.8152 470.447 42.7292 470.908 42.7292C471.639 42.7292 472.211 42.9128 472.625 43.28C473.039 43.6433 473.254 44.1453 473.27 44.7859V47.7039C473.27 48.2859 473.344 48.7488 473.492 49.0925V49.1863H472.355ZM470.557 48.3601C470.896 48.3601 471.219 48.2722 471.523 48.0964C471.828 47.9207 472.049 47.6921 472.186 47.4109V46.1101H471.336C470.008 46.1101 469.344 46.4988 469.344 47.2761C469.344 47.616 469.457 47.8816 469.684 48.073C469.91 48.2644 470.201 48.3601 470.557 48.3601ZM475.988 42.8464L476.018 43.5496C476.482 43.0027 477.109 42.7292 477.898 42.7292C478.785 42.7292 479.389 43.0691 479.709 43.7488C479.92 43.4441 480.193 43.198 480.529 43.0105C480.869 42.823 481.27 42.7292 481.73 42.7292C483.121 42.7292 483.828 43.4656 483.852 44.9382V49.1863H482.768V45.0027C482.768 44.5496 482.664 44.2117 482.457 43.989C482.25 43.7625 481.902 43.6492 481.414 43.6492C481.012 43.6492 480.678 43.7703 480.412 44.0125C480.146 44.2507 479.992 44.573 479.949 44.9792V49.1863H478.859V45.032C478.859 44.1101 478.408 43.6492 477.506 43.6492C476.795 43.6492 476.309 43.9519 476.047 44.5574V49.1863H474.963V42.8464H475.988ZM488.123 49.3035C487.264 49.3035 486.564 49.0222 486.025 48.4597C485.486 47.8933 485.217 47.1375 485.217 46.1921V45.9929C485.217 45.364 485.336 44.8035 485.574 44.3113C485.816 43.8152 486.152 43.4285 486.582 43.1511C487.016 42.8699 487.484 42.7292 487.988 42.7292C488.812 42.7292 489.453 43.0007 489.91 43.5437C490.367 44.0867 490.596 44.864 490.596 45.8757V46.3269H486.301C486.316 46.9519 486.498 47.4578 486.846 47.8445C487.197 48.2273 487.643 48.4187 488.182 48.4187C488.564 48.4187 488.889 48.3406 489.154 48.1843C489.42 48.0281 489.652 47.821 489.852 47.5632L490.514 48.0789C489.982 48.8953 489.186 49.3035 488.123 49.3035ZM487.988 43.6199C487.551 43.6199 487.184 43.78 486.887 44.1003C486.59 44.4167 486.406 44.8621 486.336 45.4363H489.512V45.3542C489.48 44.8035 489.332 44.3777 489.066 44.0769C488.801 43.7722 488.441 43.6199 487.988 43.6199Z" fill="black"/>
<circle r="3" transform="matrix(-1 0 0 1 452.5 46.6863)" stroke="black"/>
<line y1="-0.5" x2="32" y2="-0.5" transform="matrix(-1 8.74228e-08 8.74228e-08 1 450 47.1863)" stroke="black"/>
<path d="M462.998 36.1863H461.914V29.8464H462.998V36.1863ZM461.826 28.1648C461.826 27.989 461.879 27.8406 461.984 27.7195C462.094 27.5984 462.254 27.5378 462.465 27.5378C462.676 27.5378 462.836 27.5984 462.945 27.7195C463.055 27.8406 463.109 27.989 463.109 28.1648C463.109 28.3406 463.055 28.4871 462.945 28.6042C462.836 28.7214 462.676 28.78 462.465 28.78C462.254 28.78 462.094 28.7214 461.984 28.6042C461.879 28.4871 461.826 28.3406 461.826 28.1648ZM464.475 32.9636C464.475 31.991 464.705 31.2097 465.166 30.6199C465.627 30.0261 466.23 29.7292 466.977 29.7292C467.719 29.7292 468.307 29.9832 468.74 30.491V27.1863H469.824V36.1863H468.828L468.775 35.5066C468.342 36.0378 467.738 36.3035 466.965 36.3035C466.23 36.3035 465.631 36.0027 465.166 35.4011C464.705 34.7996 464.475 34.0144 464.475 33.0457V32.9636ZM465.559 33.0867C465.559 33.8054 465.707 34.3679 466.004 34.7742C466.301 35.1804 466.711 35.3835 467.234 35.3835C467.922 35.3835 468.424 35.075 468.74 34.4578V31.5457C468.416 30.948 467.918 30.6492 467.246 30.6492C466.715 30.6492 466.301 30.8542 466.004 31.2644C465.707 31.6746 465.559 32.282 465.559 33.0867Z" fill="black"/>
<circle r="3" transform="matrix(-1 0 0 1 452.5 33.6863)" fill="black" stroke="black"/>
<line y1="-0.5" x2="32" y2="-0.5" transform="matrix(-1 8.74228e-08 8.74228e-08 1 450 34.1863)" stroke="black"/>
<circle cx="89.5" cy="65.6863" r="3" stroke="black"/>
<line x1="92" y1="65.6863" x2="132" y2="65.6863" stroke="black"/>
<circle cx="89.5" cy="80.6863" r="3" stroke="black"/>
<line x1="92" y1="80.6863" x2="145" y2="80.6863" stroke="black"/>
<circle cx="89.5" cy="94.6863" r="3" stroke="black"/>
<line x1="92" y1="94.6863" x2="158" y2="94.6863" stroke="black"/>
<line x1="131.5" y1="65.1863" x2="131.5" y2="61.1863" stroke="black"/>
<line x1="144.5" y1="61.1863" x2="144.5" y2="80.1863" stroke="black"/>
<line x1="157.5" y1="94.1863" x2="157.5" y2="60.1863" stroke="black"/>
<line x1="187" y1="42.6863" x2="234" y2="42.6863" stroke="black"/>
<line x1="287" y1="42.6863" x2="334" y2="42.6863" stroke="black"/>
<rect x="233.707" y="42.8137" width="38.3345" height="37.4472" transform="rotate(-45 233.707 42.8137)" fill="#E5E5E5" stroke="black"/>
<path d="M251.904 41.614C252.385 41.0242 253.01 40.7292 253.779 40.7292C255.119 40.7292 255.795 41.4851 255.807 42.9968V47.1863H254.723V42.991C254.719 42.5339 254.613 42.196 254.406 41.9773C254.203 41.7585 253.885 41.6492 253.451 41.6492C253.1 41.6492 252.791 41.7429 252.525 41.9304C252.26 42.1179 252.053 42.364 251.904 42.6687V47.1863H250.82V38.1863H251.904V41.614ZM261.344 47.1863C261.281 47.0613 261.23 46.8386 261.191 46.5183C260.688 47.0417 260.086 47.3035 259.387 47.3035C258.762 47.3035 258.248 47.1277 257.846 46.7761C257.447 46.4207 257.248 45.9714 257.248 45.4285C257.248 44.7683 257.498 44.2566 257.998 43.8933C258.502 43.5261 259.209 43.3425 260.119 43.3425H261.174V42.8445C261.174 42.4656 261.061 42.1648 260.834 41.9421C260.607 41.7156 260.273 41.6023 259.832 41.6023C259.445 41.6023 259.121 41.7 258.859 41.8953C258.598 42.0906 258.467 42.3269 258.467 42.6042H257.377C257.377 42.2878 257.488 41.9832 257.711 41.6902C257.938 41.3933 258.242 41.1589 258.625 40.9871C259.012 40.8152 259.436 40.7292 259.896 40.7292C260.627 40.7292 261.199 40.9128 261.613 41.28C262.027 41.6433 262.242 42.1453 262.258 42.7859V45.7039C262.258 46.2859 262.332 46.7488 262.48 47.0925V47.1863H261.344ZM259.545 46.3601C259.885 46.3601 260.207 46.2722 260.512 46.0964C260.816 45.9207 261.037 45.6921 261.174 45.4109V44.1101H260.324C258.996 44.1101 258.332 44.4988 258.332 45.2761C258.332 45.616 258.445 45.8816 258.672 46.073C258.898 46.2644 259.189 46.3601 259.545 46.3601ZM267.648 45.5046C267.648 45.2117 267.537 44.9851 267.314 44.825C267.096 44.6609 266.711 44.5203 266.16 44.4031C265.613 44.2859 265.178 44.1453 264.854 43.9812C264.533 43.8171 264.295 43.6218 264.139 43.3953C263.986 43.1687 263.91 42.8992 263.91 42.5867C263.91 42.0671 264.129 41.6277 264.566 41.2683C265.008 40.9089 265.57 40.7292 266.254 40.7292C266.973 40.7292 267.555 40.9148 268 41.2859C268.449 41.657 268.674 42.1316 268.674 42.7097H267.584C267.584 42.4128 267.457 42.157 267.203 41.9421C266.953 41.7273 266.637 41.6199 266.254 41.6199C265.859 41.6199 265.551 41.7058 265.328 41.8777C265.105 42.0496 264.994 42.2742 264.994 42.5515C264.994 42.8132 265.098 43.0105 265.305 43.1433C265.512 43.2761 265.885 43.4031 266.424 43.5242C266.967 43.6453 267.406 43.7898 267.742 43.9578C268.078 44.1257 268.326 44.3289 268.486 44.5671C268.65 44.8015 268.732 45.0886 268.732 45.4285C268.732 45.9949 268.506 46.45 268.053 46.7937C267.6 47.1335 267.012 47.3035 266.289 47.3035C265.781 47.3035 265.332 47.2136 264.941 47.0339C264.551 46.8542 264.244 46.6042 264.021 46.2839C263.803 45.9597 263.693 45.6101 263.693 45.2351H264.777C264.797 45.5984 264.941 45.8875 265.211 46.1023C265.484 46.3132 265.844 46.4187 266.289 46.4187C266.699 46.4187 267.027 46.3367 267.273 46.1726C267.523 46.0046 267.648 45.782 267.648 45.5046Z" fill="black"/>
<path d="M198.779 33.7234C198.779 32.8406 198.896 31.9929 199.131 31.1804C199.369 30.3679 199.723 29.6296 200.191 28.9656C200.66 28.3015 201.146 27.8328 201.65 27.5593L201.873 28.2742C201.303 28.7117 200.834 29.3796 200.467 30.2781C200.104 31.1765 199.904 32.1824 199.869 33.2957L199.863 33.7937C199.863 35.3015 200.139 36.6101 200.689 37.7195C201.021 38.3835 201.416 38.9031 201.873 39.2781L201.65 39.9402C201.131 39.6511 200.635 39.1667 200.162 38.4871C199.24 37.1589 198.779 35.571 198.779 33.7234ZM208.16 33.5476C208.16 34.8171 207.943 35.7605 207.51 36.3777C207.076 36.9949 206.398 37.3035 205.477 37.3035C204.566 37.3035 203.893 37.0027 203.455 36.4011C203.018 35.7957 202.791 34.8933 202.775 33.6941V32.2468C202.775 30.9929 202.992 30.0613 203.426 29.4519C203.859 28.8425 204.539 28.5378 205.465 28.5378C206.383 28.5378 207.059 28.8328 207.492 29.4226C207.926 30.0085 208.148 30.9148 208.16 32.1414V33.5476ZM207.076 32.0652C207.076 31.1472 206.947 30.4792 206.689 30.0613C206.432 29.6394 206.023 29.4285 205.465 29.4285C204.91 29.4285 204.506 29.6375 204.252 30.0554C203.998 30.4734 203.867 31.116 203.859 31.9832V33.7175C203.859 34.6394 203.992 35.321 204.258 35.7625C204.527 36.2 204.934 36.4187 205.477 36.4187C206.012 36.4187 206.408 36.2117 206.666 35.7976C206.928 35.3835 207.064 34.7312 207.076 33.8406V32.0652ZM209.625 38.8855L209.01 38.4636C209.377 37.9519 209.568 37.4246 209.584 36.8816V35.9031H210.645V36.7527C210.645 37.1472 210.547 37.5417 210.352 37.9363C210.16 38.3308 209.918 38.6472 209.625 38.8855ZM221.719 37.1863H220.588L216.293 30.6121V37.1863H215.162V28.655H216.293L220.6 35.2585V28.655H221.719V37.1863ZM226.049 33.782C226.049 34.6531 225.934 35.489 225.703 36.2898C225.477 37.0867 225.127 37.823 224.654 38.4988C224.186 39.1746 223.693 39.655 223.178 39.9402L222.949 39.2781C223.551 38.8171 224.033 38.1023 224.396 37.1335C224.764 36.1609 224.951 35.0828 224.959 33.8992V33.7117C224.959 32.8914 224.873 32.1296 224.701 31.4265C224.529 30.7195 224.289 30.0867 223.98 29.5281C223.676 28.9695 223.332 28.5339 222.949 28.2214L223.178 27.5593C223.693 27.8445 224.184 28.321 224.648 28.989C225.117 29.657 225.467 30.3933 225.697 31.198C225.932 32.0027 226.049 32.864 226.049 33.782Z" fill="black"/>
<path d="M297.779 33.7234C297.779 32.8406 297.896 31.9929 298.131 31.1804C298.369 30.3679 298.723 29.6296 299.191 28.9656C299.66 28.3015 300.146 27.8328 300.65 27.5593L300.873 28.2742C300.303 28.7117 299.834 29.3796 299.467 30.2781C299.104 31.1765 298.904 32.1824 298.869 33.2957L298.863 33.7937C298.863 35.3015 299.139 36.6101 299.689 37.7195C300.021 38.3835 300.416 38.9031 300.873 39.2781L300.65 39.9402C300.131 39.6511 299.635 39.1667 299.162 38.4871C298.24 37.1589 297.779 35.571 297.779 33.7234ZM307.16 33.5476C307.16 34.8171 306.943 35.7605 306.51 36.3777C306.076 36.9949 305.398 37.3035 304.477 37.3035C303.566 37.3035 302.893 37.0027 302.455 36.4011C302.018 35.7957 301.791 34.8933 301.775 33.6941V32.2468C301.775 30.9929 301.992 30.0613 302.426 29.4519C302.859 28.8425 303.539 28.5378 304.465 28.5378C305.383 28.5378 306.059 28.8328 306.492 29.4226C306.926 30.0085 307.148 30.9148 307.16 32.1414V33.5476ZM306.076 32.0652C306.076 31.1472 305.947 30.4792 305.689 30.0613C305.432 29.6394 305.023 29.4285 304.465 29.4285C303.91 29.4285 303.506 29.6375 303.252 30.0554C302.998 30.4734 302.867 31.116 302.859 31.9832V33.7175C302.859 34.6394 302.992 35.321 303.258 35.7625C303.527 36.2 303.934 36.4187 304.477 36.4187C305.012 36.4187 305.408 36.2117 305.666 35.7976C305.928 35.3835 306.064 34.7312 306.076 33.8406V32.0652ZM308.625 38.8855L308.01 38.4636C308.377 37.9519 308.568 37.4246 308.584 36.8816V35.9031H309.645V36.7527C309.645 37.1472 309.547 37.5417 309.352 37.9363C309.16 38.3308 308.918 38.6472 308.625 38.8855ZM320.719 37.1863H319.588L315.293 30.6121V37.1863H314.162V28.655H315.293L319.6 35.2585V28.655H320.719V37.1863ZM325.049 33.782C325.049 34.6531 324.934 35.489 324.703 36.2898C324.477 37.0867 324.127 37.823 323.654 38.4988C323.186 39.1746 322.693 39.655 322.178 39.9402L321.949 39.2781C322.551 38.8171 323.033 38.1023 323.396 37.1335C323.764 36.1609 323.951 35.0828 323.959 33.8992V33.7117C323.959 32.8914 323.873 32.1296 323.701 31.4265C323.529 30.7195 323.289 30.0867 322.98 29.5281C322.676 28.9695 322.332 28.5339 321.949 28.2214L322.178 27.5593C322.693 27.8445 323.184 28.321 323.648 28.989C324.117 29.657 324.467 30.3933 324.697 31.198C324.932 32.0027 325.049 32.864 325.049 33.782Z" fill="black"/>
<path d="M350.176 44.0867C350.176 45.0515 349.955 45.8289 349.514 46.4187C349.072 47.0085 348.475 47.3035 347.721 47.3035C346.951 47.3035 346.346 47.0593 345.904 46.571V49.6238H344.82V40.8464H345.811L345.863 41.5496C346.305 41.0027 346.918 40.7292 347.703 40.7292C348.465 40.7292 349.066 41.0164 349.508 41.5906C349.953 42.1648 350.176 42.9636 350.176 43.9871V44.0867ZM349.092 43.9636C349.092 43.2488 348.939 42.6843 348.635 42.2703C348.33 41.8562 347.912 41.6492 347.381 41.6492C346.725 41.6492 346.232 41.9402 345.904 42.5222V45.5515C346.229 46.1296 346.725 46.4187 347.393 46.4187C347.912 46.4187 348.324 46.2136 348.629 45.8035C348.938 45.3894 349.092 44.7761 349.092 43.9636ZM354.189 47.3035C353.33 47.3035 352.631 47.0222 352.092 46.4597C351.553 45.8933 351.283 45.1375 351.283 44.1921V43.9929C351.283 43.364 351.402 42.8035 351.641 42.3113C351.883 41.8152 352.219 41.4285 352.648 41.1511C353.082 40.8699 353.551 40.7292 354.055 40.7292C354.879 40.7292 355.52 41.0007 355.977 41.5437C356.434 42.0867 356.662 42.864 356.662 43.8757V44.3269H352.367C352.383 44.9519 352.564 45.4578 352.912 45.8445C353.264 46.2273 353.709 46.4187 354.248 46.4187C354.631 46.4187 354.955 46.3406 355.221 46.1843C355.486 46.0281 355.719 45.821 355.918 45.5632L356.58 46.0789C356.049 46.8953 355.252 47.3035 354.189 47.3035ZM354.055 41.6199C353.617 41.6199 353.25 41.78 352.953 42.1003C352.656 42.4167 352.473 42.8621 352.402 43.4363H355.578V43.3542C355.547 42.8035 355.398 42.3777 355.133 42.0769C354.867 41.7722 354.508 41.6199 354.055 41.6199ZM360.986 41.8191C360.822 41.7917 360.645 41.7781 360.453 41.7781C359.742 41.7781 359.26 42.0808 359.006 42.6863V47.1863H357.922V40.8464H358.977L358.994 41.5789C359.35 41.0125 359.854 40.7292 360.506 40.7292C360.717 40.7292 360.877 40.7566 360.986 40.8113V41.8191ZM363.008 40.8464L363.037 41.5496C363.502 41.0027 364.129 40.7292 364.918 40.7292C365.805 40.7292 366.408 41.0691 366.729 41.7488C366.939 41.4441 367.213 41.198 367.549 41.0105C367.889 40.823 368.289 40.7292 368.75 40.7292C370.141 40.7292 370.848 41.4656 370.871 42.9382V47.1863H369.787V43.0027C369.787 42.5496 369.684 42.2117 369.477 41.989C369.27 41.7625 368.922 41.6492 368.434 41.6492C368.031 41.6492 367.697 41.7703 367.432 42.0125C367.166 42.2507 367.012 42.573 366.969 42.9792V47.1863H365.879V43.032C365.879 42.1101 365.428 41.6492 364.525 41.6492C363.814 41.6492 363.328 41.9519 363.066 42.5574V47.1863H361.982V40.8464H363.008ZM373.689 47.1863H372.605V40.8464H373.689V47.1863ZM372.518 39.1648C372.518 38.989 372.57 38.8406 372.676 38.7195C372.785 38.5984 372.945 38.5378 373.156 38.5378C373.367 38.5378 373.527 38.5984 373.637 38.7195C373.746 38.8406 373.801 38.989 373.801 39.1648C373.801 39.3406 373.746 39.4871 373.637 39.6042C373.527 39.7214 373.367 39.78 373.156 39.78C372.945 39.78 372.785 39.7214 372.676 39.6042C372.57 39.4871 372.518 39.3406 372.518 39.1648ZM379.121 45.5046C379.121 45.2117 379.01 44.9851 378.787 44.825C378.568 44.6609 378.184 44.5203 377.633 44.4031C377.086 44.2859 376.65 44.1453 376.326 43.9812C376.006 43.8171 375.768 43.6218 375.611 43.3953C375.459 43.1687 375.383 42.8992 375.383 42.5867C375.383 42.0671 375.602 41.6277 376.039 41.2683C376.48 40.9089 377.043 40.7292 377.727 40.7292C378.445 40.7292 379.027 40.9148 379.473 41.2859C379.922 41.657 380.146 42.1316 380.146 42.7097H379.057C379.057 42.4128 378.93 42.157 378.676 41.9421C378.426 41.7273 378.109 41.6199 377.727 41.6199C377.332 41.6199 377.023 41.7058 376.801 41.8777C376.578 42.0496 376.467 42.2742 376.467 42.5515C376.467 42.8132 376.57 43.0105 376.777 43.1433C376.984 43.2761 377.357 43.4031 377.896 43.5242C378.439 43.6453 378.879 43.7898 379.215 43.9578C379.551 44.1257 379.799 44.3289 379.959 44.5671C380.123 44.8015 380.205 45.0886 380.205 45.4285C380.205 45.9949 379.979 46.45 379.525 46.7937C379.072 47.1335 378.484 47.3035 377.762 47.3035C377.254 47.3035 376.805 47.2136 376.414 47.0339C376.023 46.8542 375.717 46.6042 375.494 46.2839C375.275 45.9597 375.166 45.6101 375.166 45.2351H376.25C376.27 45.5984 376.414 45.8875 376.684 46.1023C376.957 46.3132 377.316 46.4187 377.762 46.4187C378.172 46.4187 378.5 46.3367 378.746 46.1726C378.996 46.0046 379.121 45.782 379.121 45.5046ZM385.309 45.5046C385.309 45.2117 385.197 44.9851 384.975 44.825C384.756 44.6609 384.371 44.5203 383.82 44.4031C383.273 44.2859 382.838 44.1453 382.514 43.9812C382.193 43.8171 381.955 43.6218 381.799 43.3953C381.646 43.1687 381.57 42.8992 381.57 42.5867C381.57 42.0671 381.789 41.6277 382.227 41.2683C382.668 40.9089 383.23 40.7292 383.914 40.7292C384.633 40.7292 385.215 40.9148 385.66 41.2859C386.109 41.657 386.334 42.1316 386.334 42.7097H385.244C385.244 42.4128 385.117 42.157 384.863 41.9421C384.613 41.7273 384.297 41.6199 383.914 41.6199C383.52 41.6199 383.211 41.7058 382.988 41.8777C382.766 42.0496 382.654 42.2742 382.654 42.5515C382.654 42.8132 382.758 43.0105 382.965 43.1433C383.172 43.2761 383.545 43.4031 384.084 43.5242C384.627 43.6453 385.066 43.7898 385.402 43.9578C385.738 44.1257 385.986 44.3289 386.146 44.5671C386.311 44.8015 386.393 45.0886 386.393 45.4285C386.393 45.9949 386.166 46.45 385.713 46.7937C385.26 47.1335 384.672 47.3035 383.949 47.3035C383.441 47.3035 382.992 47.2136 382.602 47.0339C382.211 46.8542 381.904 46.6042 381.682 46.2839C381.463 45.9597 381.354 45.6101 381.354 45.2351H382.438C382.457 45.5984 382.602 45.8875 382.871 46.1023C383.145 46.3132 383.504 46.4187 383.949 46.4187C384.359 46.4187 384.688 46.3367 384.934 46.1726C385.184 46.0046 385.309 45.782 385.309 45.5046ZM387.518 43.9578C387.518 43.3367 387.639 42.7781 387.881 42.282C388.127 41.7859 388.467 41.4031 388.9 41.1335C389.338 40.864 389.836 40.7292 390.395 40.7292C391.258 40.7292 391.955 41.0281 392.486 41.6257C393.021 42.2234 393.289 43.0183 393.289 44.0105V44.0867C393.289 44.7039 393.17 45.2585 392.932 45.7507C392.697 46.239 392.359 46.6199 391.918 46.8933C391.48 47.1667 390.977 47.3035 390.406 47.3035C389.547 47.3035 388.85 47.0046 388.314 46.407C387.783 45.8093 387.518 45.0183 387.518 44.0339V43.9578ZM388.607 44.0867C388.607 44.7898 388.77 45.3542 389.094 45.78C389.422 46.2058 389.859 46.4187 390.406 46.4187C390.957 46.4187 391.395 46.2039 391.719 45.7742C392.043 45.3406 392.205 44.7351 392.205 43.9578C392.205 43.2625 392.039 42.7 391.707 42.2703C391.379 41.8367 390.941 41.6199 390.395 41.6199C389.859 41.6199 389.428 41.8328 389.1 42.2585C388.771 42.6843 388.607 43.2937 388.607 44.0867ZM395.674 40.8464L395.709 41.6433C396.193 41.0339 396.826 40.7292 397.607 40.7292C398.947 40.7292 399.623 41.4851 399.635 42.9968V47.1863H398.551V42.991C398.547 42.5339 398.441 42.196 398.234 41.9773C398.031 41.7585 397.713 41.6492 397.279 41.6492C396.928 41.6492 396.619 41.7429 396.354 41.9304C396.088 42.1179 395.881 42.364 395.732 42.6687V47.1863H394.648V40.8464H395.674ZM404.961 45.5046C404.961 45.2117 404.85 44.9851 404.627 44.825C404.408 44.6609 404.023 44.5203 403.473 44.4031C402.926 44.2859 402.49 44.1453 402.166 43.9812C401.846 43.8171 401.607 43.6218 401.451 43.3953C401.299 43.1687 401.223 42.8992 401.223 42.5867C401.223 42.0671 401.441 41.6277 401.879 41.2683C402.32 40.9089 402.883 40.7292 403.566 40.7292C404.285 40.7292 404.867 40.9148 405.312 41.2859C405.762 41.657 405.986 42.1316 405.986 42.7097H404.896C404.896 42.4128 404.77 42.157 404.516 41.9421C404.266 41.7273 403.949 41.6199 403.566 41.6199C403.172 41.6199 402.863 41.7058 402.641 41.8777C402.418 42.0496 402.307 42.2742 402.307 42.5515C402.307 42.8132 402.41 43.0105 402.617 43.1433C402.824 43.2761 403.197 43.4031 403.736 43.5242C404.279 43.6453 404.719 43.7898 405.055 43.9578C405.391 44.1257 405.639 44.3289 405.799 44.5671C405.963 44.8015 406.045 45.0886 406.045 45.4285C406.045 45.9949 405.818 46.45 405.365 46.7937C404.912 47.1335 404.324 47.3035 403.602 47.3035C403.094 47.3035 402.645 47.2136 402.254 47.0339C401.863 46.8542 401.557 46.6042 401.334 46.2839C401.115 45.9597 401.006 45.6101 401.006 45.2351H402.09C402.109 45.5984 402.254 45.8875 402.523 46.1023C402.797 46.3132 403.156 46.4187 403.602 46.4187C404.012 46.4187 404.34 46.3367 404.586 46.1726C404.836 46.0046 404.961 45.782 404.961 45.5046Z" fill="black"/>
<rect x="125.5" y="132.5" width="84" height="34" rx="2.5" fill="#E5E5E5" stroke="black"/>
<path d="M52.8457 149.66L52.8809 150.457C53.3652 149.848 53.998 149.543 54.7793 149.543C56.1191 149.543 56.7949 150.299 56.8066 151.811V156H55.7227V151.805C55.7188 151.348 55.6133 151.01 55.4062 150.791C55.2031 150.572 54.8848 150.463 54.4512 150.463C54.0996 150.463 53.791 150.557 53.5254 150.744C53.2598 150.932 53.0527 151.178 52.9043 151.482V156H51.8203V149.66H52.8457ZM62.3555 156C62.293 155.875 62.2422 155.652 62.2031 155.332C61.6992 155.855 61.0977 156.117 60.3984 156.117C59.7734 156.117 59.2598 155.941 58.8574 155.59C58.459 155.234 58.2598 154.785 58.2598 154.242C58.2598 153.582 58.5098 153.07 59.0098 152.707C59.5137 152.34 60.2207 152.156 61.1309 152.156H62.1855V151.658C62.1855 151.279 62.0723 150.979 61.8457 150.756C61.6191 150.529 61.2852 150.416 60.8438 150.416C60.457 150.416 60.1328 150.514 59.8711 150.709C59.6094 150.904 59.4785 151.141 59.4785 151.418H58.3887C58.3887 151.102 58.5 150.797 58.7227 150.504C58.9492 150.207 59.2539 149.973 59.6367 149.801C60.0234 149.629 60.4473 149.543 60.9082 149.543C61.6387 149.543 62.2109 149.727 62.625 150.094C63.0391 150.457 63.2539 150.959 63.2695 151.6V154.518C63.2695 155.1 63.3438 155.562 63.4922 155.906V156H62.3555ZM60.5566 155.174C60.8965 155.174 61.2188 155.086 61.5234 154.91C61.8281 154.734 62.0488 154.506 62.1855 154.225V152.924H61.3359C60.0078 152.924 59.3438 153.312 59.3438 154.09C59.3438 154.43 59.457 154.695 59.6836 154.887C59.9102 155.078 60.2012 155.174 60.5566 155.174ZM65.9883 149.66L66.0176 150.363C66.4824 149.816 67.1094 149.543 67.8984 149.543C68.7852 149.543 69.3887 149.883 69.709 150.562C69.9199 150.258 70.1934 150.012 70.5293 149.824C70.8691 149.637 71.2695 149.543 71.7305 149.543C73.1211 149.543 73.8281 150.279 73.8516 151.752V156H72.7676V151.816C72.7676 151.363 72.6641 151.025 72.457 150.803C72.25 150.576 71.9023 150.463 71.4141 150.463C71.0117 150.463 70.6777 150.584 70.4121 150.826C70.1465 151.064 69.9922 151.387 69.9492 151.793V156H68.8594V151.846C68.8594 150.924 68.4082 150.463 67.5059 150.463C66.7949 150.463 66.3086 150.766 66.0469 151.371V156H64.9629V149.66H65.9883ZM78.123 156.117C77.2637 156.117 76.5645 155.836 76.0254 155.273C75.4863 154.707 75.2168 153.951 75.2168 153.006V152.807C75.2168 152.178 75.3359 151.617 75.5742 151.125C75.8164 150.629 76.1523 150.242 76.582 149.965C77.0156 149.684 77.4844 149.543 77.9883 149.543C78.8125 149.543 79.4531 149.814 79.9102 150.357C80.3672 150.9 80.5957 151.678 80.5957 152.689V153.141H76.3008C76.3164 153.766 76.498 154.271 76.8457 154.658C77.1973 155.041 77.6426 155.232 78.1816 155.232C78.5645 155.232 78.8887 155.154 79.1543 154.998C79.4199 154.842 79.6523 154.635 79.8516 154.377L80.5137 154.893C79.9824 155.709 79.1855 156.117 78.123 156.117ZM77.9883 150.434C77.5508 150.434 77.1836 150.594 76.8867 150.914C76.5898 151.23 76.4062 151.676 76.3359 152.25H79.5117V152.168C79.4805 151.617 79.332 151.191 79.0664 150.891C78.8008 150.586 78.4414 150.434 77.9883 150.434Z" fill="black"/>
<path d="M40.3633 177.232C40.75 177.232 41.0879 177.115 41.377 176.881C41.666 176.646 41.8262 176.354 41.8574 176.002H42.8828C42.8633 176.365 42.7383 176.711 42.5078 177.039C42.2773 177.367 41.9688 177.629 41.582 177.824C41.1992 178.02 40.793 178.117 40.3633 178.117C39.5 178.117 38.8125 177.83 38.3008 177.256C37.793 176.678 37.5391 175.889 37.5391 174.889V174.707C37.5391 174.09 37.6523 173.541 37.8789 173.061C38.1055 172.58 38.4297 172.207 38.8516 171.941C39.2773 171.676 39.7793 171.543 40.3574 171.543C41.0684 171.543 41.6582 171.756 42.127 172.182C42.5996 172.607 42.8516 173.16 42.8828 173.84H41.8574C41.8262 173.43 41.6699 173.094 41.3887 172.832C41.1113 172.566 40.7676 172.434 40.3574 172.434C39.8066 172.434 39.3789 172.633 39.0742 173.031C38.7734 173.426 38.623 173.998 38.623 174.748V174.953C38.623 175.684 38.7734 176.246 39.0742 176.641C39.375 177.035 39.8047 177.232 40.3633 177.232ZM45.2793 178H44.1953V169H45.2793V178ZM48.1973 178H47.1133V171.66H48.1973V178ZM47.0254 169.979C47.0254 169.803 47.0781 169.654 47.1836 169.533C47.293 169.412 47.4531 169.352 47.6641 169.352C47.875 169.352 48.0352 169.412 48.1445 169.533C48.2539 169.654 48.3086 169.803 48.3086 169.979C48.3086 170.154 48.2539 170.301 48.1445 170.418C48.0352 170.535 47.875 170.594 47.6641 170.594C47.4531 170.594 47.293 170.535 47.1836 170.418C47.0781 170.301 47.0254 170.154 47.0254 169.979ZM52.5684 178.117C51.709 178.117 51.0098 177.836 50.4707 177.273C49.9316 176.707 49.6621 175.951 49.6621 175.006V174.807C49.6621 174.178 49.7812 173.617 50.0195 173.125C50.2617 172.629 50.5977 172.242 51.0273 171.965C51.4609 171.684 51.9297 171.543 52.4336 171.543C53.2578 171.543 53.8984 171.814 54.3555 172.357C54.8125 172.9 55.041 173.678 55.041 174.689V175.141H50.7461C50.7617 175.766 50.9434 176.271 51.291 176.658C51.6426 177.041 52.0879 177.232 52.627 177.232C53.0098 177.232 53.334 177.154 53.5996 176.998C53.8652 176.842 54.0977 176.635 54.2969 176.377L54.959 176.893C54.4277 177.709 53.6309 178.117 52.5684 178.117ZM52.4336 172.434C51.9961 172.434 51.6289 172.594 51.332 172.914C51.0352 173.23 50.8516 173.676 50.7812 174.25H53.957V174.168C53.9258 173.617 53.7773 173.191 53.5117 172.891C53.2461 172.586 52.8867 172.434 52.4336 172.434ZM57.3262 171.66L57.3613 172.457C57.8457 171.848 58.4785 171.543 59.2598 171.543C60.5996 171.543 61.2754 172.299 61.2871 173.811V178H60.2031V173.805C60.1992 173.348 60.0938 173.01 59.8867 172.791C59.6836 172.572 59.3652 172.463 58.9316 172.463C58.5801 172.463 58.2715 172.557 58.0059 172.744C57.7402 172.932 57.5332 173.178 57.3848 173.482V178H56.3008V171.66H57.3262ZM64.3926 170.125V171.66H65.5762V172.498H64.3926V176.43C64.3926 176.684 64.4453 176.875 64.5508 177.004C64.6562 177.129 64.8359 177.191 65.0898 177.191C65.2148 177.191 65.3867 177.168 65.6055 177.121V178C65.3203 178.078 65.043 178.117 64.7734 178.117C64.2891 178.117 63.9238 177.971 63.6777 177.678C63.4316 177.385 63.3086 176.969 63.3086 176.43V172.498H62.1543V171.66H63.3086V170.125H64.3926ZM71.418 178.885H66.0508V178H71.418V178.885ZM73.4395 178H72.3555V171.66H73.4395V178ZM72.2676 169.979C72.2676 169.803 72.3203 169.654 72.4258 169.533C72.5352 169.412 72.6953 169.352 72.9062 169.352C73.1172 169.352 73.2773 169.412 73.3867 169.533C73.4961 169.654 73.5508 169.803 73.5508 169.979C73.5508 170.154 73.4961 170.301 73.3867 170.418C73.2773 170.535 73.1172 170.594 72.9062 170.594C72.6953 170.594 72.5352 170.535 72.4258 170.418C72.3203 170.301 72.2676 170.154 72.2676 169.979ZM74.916 174.777C74.916 173.805 75.1465 173.023 75.6074 172.434C76.0684 171.84 76.6719 171.543 77.418 171.543C78.1602 171.543 78.748 171.797 79.1816 172.305V169H80.2656V178H79.2695L79.2168 177.32C78.7832 177.852 78.1797 178.117 77.4062 178.117C76.6719 178.117 76.0723 177.816 75.6074 177.215C75.1465 176.613 74.916 175.828 74.916 174.859V174.777ZM76 174.9C76 175.619 76.1484 176.182 76.4453 176.588C76.7422 176.994 77.1523 177.197 77.6758 177.197C78.3633 177.197 78.8652 176.889 79.1816 176.271V173.359C78.8574 172.762 78.3594 172.463 77.6875 172.463C77.1562 172.463 76.7422 172.668 76.4453 173.078C76.1484 173.488 76 174.096 76 174.9Z" fill="black"/>
<path d="M16.3633 197.232C16.75 197.232 17.0879 197.115 17.377 196.881C17.666 196.646 17.8262 196.354 17.8574 196.002H18.8828C18.8633 196.365 18.7383 196.711 18.5078 197.039C18.2773 197.367 17.9688 197.629 17.582 197.824C17.1992 198.02 16.793 198.117 16.3633 198.117C15.5 198.117 14.8125 197.83 14.3008 197.256C13.793 196.678 13.5391 195.889 13.5391 194.889V194.707C13.5391 194.09 13.6523 193.541 13.8789 193.061C14.1055 192.58 14.4297 192.207 14.8516 191.941C15.2773 191.676 15.7793 191.543 16.3574 191.543C17.0684 191.543 17.6582 191.756 18.127 192.182C18.5996 192.607 18.8516 193.16 18.8828 193.84H17.8574C17.8262 193.43 17.6699 193.094 17.3887 192.832C17.1113 192.566 16.7676 192.434 16.3574 192.434C15.8066 192.434 15.3789 192.633 15.0742 193.031C14.7734 193.426 14.623 193.998 14.623 194.748V194.953C14.623 195.684 14.7734 196.246 15.0742 196.641C15.375 197.035 15.8047 197.232 16.3633 197.232ZM21.2793 198H20.1953V189H21.2793V198ZM24.1973 198H23.1133V191.66H24.1973V198ZM23.0254 189.979C23.0254 189.803 23.0781 189.654 23.1836 189.533C23.293 189.412 23.4531 189.352 23.6641 189.352C23.875 189.352 24.0352 189.412 24.1445 189.533C24.2539 189.654 24.3086 189.803 24.3086 189.979C24.3086 190.154 24.2539 190.301 24.1445 190.418C24.0352 190.535 23.875 190.594 23.6641 190.594C23.4531 190.594 23.293 190.535 23.1836 190.418C23.0781 190.301 23.0254 190.154 23.0254 189.979ZM28.5684 198.117C27.709 198.117 27.0098 197.836 26.4707 197.273C25.9316 196.707 25.6621 195.951 25.6621 195.006V194.807C25.6621 194.178 25.7812 193.617 26.0195 193.125C26.2617 192.629 26.5977 192.242 27.0273 191.965C27.4609 191.684 27.9297 191.543 28.4336 191.543C29.2578 191.543 29.8984 191.814 30.3555 192.357C30.8125 192.9 31.041 193.678 31.041 194.689V195.141H26.7461C26.7617 195.766 26.9434 196.271 27.291 196.658C27.6426 197.041 28.0879 197.232 28.627 197.232C29.0098 197.232 29.334 197.154 29.5996 196.998C29.8652 196.842 30.0977 196.635 30.2969 196.377L30.959 196.893C30.4277 197.709 29.6309 198.117 28.5684 198.117ZM28.4336 192.434C27.9961 192.434 27.6289 192.594 27.332 192.914C27.0352 193.23 26.8516 193.676 26.7812 194.25H29.957V194.168C29.9258 193.617 29.7773 193.191 29.5117 192.891C29.2461 192.586 28.8867 192.434 28.4336 192.434ZM33.3262 191.66L33.3613 192.457C33.8457 191.848 34.4785 191.543 35.2598 191.543C36.5996 191.543 37.2754 192.299 37.2871 193.811V198H36.2031V193.805C36.1992 193.348 36.0938 193.01 35.8867 192.791C35.6836 192.572 35.3652 192.463 34.9316 192.463C34.5801 192.463 34.2715 192.557 34.0059 192.744C33.7402 192.932 33.5332 193.178 33.3848 193.482V198H32.3008V191.66H33.3262ZM40.3926 190.125V191.66H41.5762V192.498H40.3926V196.43C40.3926 196.684 40.4453 196.875 40.5508 197.004C40.6562 197.129 40.8359 197.191 41.0898 197.191C41.2148 197.191 41.3867 197.168 41.6055 197.121V198C41.3203 198.078 41.043 198.117 40.7734 198.117C40.2891 198.117 39.9238 197.971 39.6777 197.678C39.4316 197.385 39.3086 196.969 39.3086 196.43V192.498H38.1543V191.66H39.3086V190.125H40.3926ZM47.418 198.885H42.0508V198H47.418V198.885ZM51.9531 196.318C51.9531 196.025 51.8418 195.799 51.6191 195.639C51.4004 195.475 51.0156 195.334 50.4648 195.217C49.918 195.1 49.4824 194.959 49.1582 194.795C48.8379 194.631 48.5996 194.436 48.4434 194.209C48.291 193.982 48.2148 193.713 48.2148 193.4C48.2148 192.881 48.4336 192.441 48.8711 192.082C49.3125 191.723 49.875 191.543 50.5586 191.543C51.2773 191.543 51.8594 191.729 52.3047 192.1C52.7539 192.471 52.9785 192.945 52.9785 193.523H51.8887C51.8887 193.227 51.7617 192.971 51.5078 192.756C51.2578 192.541 50.9414 192.434 50.5586 192.434C50.1641 192.434 49.8555 192.52 49.6328 192.691C49.4102 192.863 49.2988 193.088 49.2988 193.365C49.2988 193.627 49.4023 193.824 49.6094 193.957C49.8164 194.09 50.1895 194.217 50.7285 194.338C51.2715 194.459 51.7109 194.604 52.0469 194.771C52.3828 194.939 52.6309 195.143 52.791 195.381C52.9551 195.615 53.0371 195.902 53.0371 196.242C53.0371 196.809 52.8105 197.264 52.3574 197.607C51.9043 197.947 51.3164 198.117 50.5938 198.117C50.0859 198.117 49.6367 198.027 49.2461 197.848C48.8555 197.668 48.5488 197.418 48.3262 197.098C48.1074 196.773 47.998 196.424 47.998 196.049H49.082C49.1016 196.412 49.2461 196.701 49.5156 196.916C49.7891 197.127 50.1484 197.232 50.5938 197.232C51.0039 197.232 51.332 197.15 51.5781 196.986C51.8281 196.818 51.9531 196.596 51.9531 196.318ZM57.0801 198.117C56.2207 198.117 55.5215 197.836 54.9824 197.273C54.4434 196.707 54.1738 195.951 54.1738 195.006V194.807C54.1738 194.178 54.293 193.617 54.5312 193.125C54.7734 192.629 55.1094 192.242 55.5391 191.965C55.9727 191.684 56.4414 191.543 56.9453 191.543C57.7695 191.543 58.4102 191.814 58.8672 192.357C59.3242 192.9 59.5527 193.678 59.5527 194.689V195.141H55.2578C55.2734 195.766 55.4551 196.271 55.8027 196.658C56.1543 197.041 56.5996 197.232 57.1387 197.232C57.5215 197.232 57.8457 197.154 58.1113 196.998C58.377 196.842 58.6094 196.635 58.8086 196.377L59.4707 196.893C58.9395 197.709 58.1426 198.117 57.0801 198.117ZM56.9453 192.434C56.5078 192.434 56.1406 192.594 55.8438 192.914C55.5469 193.23 55.3633 193.676 55.293 194.25H58.4688V194.168C58.4375 193.617 58.2891 193.191 58.0234 192.891C57.7578 192.586 57.3984 192.434 56.9453 192.434ZM63.3555 197.232C63.7422 197.232 64.0801 197.115 64.3691 196.881C64.6582 196.646 64.8184 196.354 64.8496 196.002H65.875C65.8555 196.365 65.7305 196.711 65.5 197.039C65.2695 197.367 64.9609 197.629 64.5742 197.824C64.1914 198.02 63.7852 198.117 63.3555 198.117C62.4922 198.117 61.8047 197.83 61.293 197.256C60.7852 196.678 60.5312 195.889 60.5312 194.889V194.707C60.5312 194.09 60.6445 193.541 60.8711 193.061C61.0977 192.58 61.4219 192.207 61.8438 191.941C62.2695 191.676 62.7715 191.543 63.3496 191.543C64.0605 191.543 64.6504 191.756 65.1191 192.182C65.5918 192.607 65.8438 193.16 65.875 193.84H64.8496C64.8184 193.43 64.6621 193.094 64.3809 192.832C64.1035 192.566 63.7598 192.434 63.3496 192.434C62.7988 192.434 62.3711 192.633 62.0664 193.031C61.7656 193.426 61.6152 193.998 61.6152 194.748V194.953C61.6152 195.684 61.7656 196.246 62.0664 196.641C62.3672 197.035 62.7969 197.232 63.3555 197.232ZM70.1582 192.633C69.9941 192.605 69.8164 192.592 69.625 192.592C68.9141 192.592 68.4316 192.895 68.1777 193.5V198H67.0938V191.66H68.1484L68.166 192.393C68.5215 191.826 69.0254 191.543 69.6777 191.543C69.8887 191.543 70.0488 191.57 70.1582 191.625V192.633ZM73.6738 198.117C72.8145 198.117 72.1152 197.836 71.5762 197.273C71.0371 196.707 70.7676 195.951 70.7676 195.006V194.807C70.7676 194.178 70.8867 193.617 71.125 193.125C71.3672 192.629 71.7031 192.242 72.1328 191.965C72.5664 191.684 73.0352 191.543 73.5391 191.543C74.3633 191.543 75.0039 191.814 75.4609 192.357C75.918 192.9 76.1465 193.678 76.1465 194.689V195.141H71.8516C71.8672 195.766 72.0488 196.271 72.3965 196.658C72.748 197.041 73.1934 197.232 73.7324 197.232C74.1152 197.232 74.4395 197.154 74.7051 196.998C74.9707 196.842 75.2031 196.635 75.4023 196.377L76.0645 196.893C75.5332 197.709 74.7363 198.117 73.6738 198.117ZM73.5391 192.434C73.1016 192.434 72.7344 192.594 72.4375 192.914C72.1406 193.23 71.957 193.676 71.8867 194.25H75.0625V194.168C75.0312 193.617 74.8828 193.191 74.6172 192.891C74.3516 192.586 73.9922 192.434 73.5391 192.434ZM78.877 190.125V191.66H80.0605V192.498H78.877V196.43C78.877 196.684 78.9297 196.875 79.0352 197.004C79.1406 197.129 79.3203 197.191 79.5742 197.191C79.6992 197.191 79.8711 197.168 80.0898 197.121V198C79.8047 198.078 79.5273 198.117 79.2578 198.117C78.7734 198.117 78.4082 197.971 78.1621 197.678C77.916 197.385 77.793 196.969 77.793 196.43V192.498H76.6387V191.66H77.793V190.125H78.877Z" fill="black"/>
<circle cx="90.5" cy="153.5" r="3" stroke="black"/>
<line x1="93" y1="153.5" x2="125" y2="153.5" stroke="black"/>
<circle cx="90.5" cy="194.5" r="3" stroke="black"/>
<line x1="93" y1="194.5" x2="150" y2="194.5" stroke="black"/>
<circle cx="90.5" cy="174.5" r="3" stroke="black"/>
<line x1="93" y1="174.5" x2="136" y2="174.5" stroke="black"/>
<path d="M73.998 143H72.9141V136.66H73.998V143ZM72.8262 134.979C72.8262 134.803 72.8789 134.654 72.9844 134.533C73.0938 134.412 73.2539 134.352 73.4648 134.352C73.6758 134.352 73.8359 134.412 73.9453 134.533C74.0547 134.654 74.1094 134.803 74.1094 134.979C74.1094 135.154 74.0547 135.301 73.9453 135.418C73.8359 135.535 73.6758 135.594 73.4648 135.594C73.2539 135.594 73.0938 135.535 72.9844 135.418C72.8789 135.301 72.8262 135.154 72.8262 134.979ZM75.4746 139.777C75.4746 138.805 75.7051 138.023 76.166 137.434C76.627 136.84 77.2305 136.543 77.9766 136.543C78.7188 136.543 79.3066 136.797 79.7402 137.305V134H80.8242V143H79.8281L79.7754 142.32C79.3418 142.852 78.7383 143.117 77.9648 143.117C77.2305 143.117 76.6309 142.816 76.166 142.215C75.7051 141.613 75.4746 140.828 75.4746 139.859V139.777ZM76.5586 139.9C76.5586 140.619 76.707 141.182 77.0039 141.588C77.3008 141.994 77.7109 142.197 78.2344 142.197C78.9219 142.197 79.4238 141.889 79.7402 141.271V138.359C79.416 137.762 78.918 137.463 78.2461 137.463C77.7148 137.463 77.3008 137.668 77.0039 138.078C76.707 138.488 76.5586 139.096 76.5586 139.9Z" fill="black"/>
<circle cx="90.5" cy="140.5" r="3" fill="black" stroke="black"/>
<line x1="93" y1="140.5" x2="125" y2="140.5" stroke="black"/>
<path d="M139.363 153.232C139.75 153.232 140.088 153.115 140.377 152.881C140.666 152.646 140.826 152.354 140.857 152.002H141.883C141.863 152.365 141.738 152.711 141.508 153.039C141.277 153.367 140.969 153.629 140.582 153.824C140.199 154.02 139.793 154.117 139.363 154.117C138.5 154.117 137.812 153.83 137.301 153.256C136.793 152.678 136.539 151.889 136.539 150.889V150.707C136.539 150.09 136.652 149.541 136.879 149.061C137.105 148.58 137.43 148.207 137.852 147.941C138.277 147.676 138.779 147.543 139.357 147.543C140.068 147.543 140.658 147.756 141.127 148.182C141.6 148.607 141.852 149.16 141.883 149.84H140.857C140.826 149.43 140.67 149.094 140.389 148.832C140.111 148.566 139.768 148.434 139.357 148.434C138.807 148.434 138.379 148.633 138.074 149.031C137.773 149.426 137.623 149.998 137.623 150.748V150.953C137.623 151.684 137.773 152.246 138.074 152.641C138.375 153.035 138.805 153.232 139.363 153.232ZM144.279 154H143.195V145H144.279V154ZM147.197 154H146.113V147.66H147.197V154ZM146.025 145.979C146.025 145.803 146.078 145.654 146.184 145.533C146.293 145.412 146.453 145.352 146.664 145.352C146.875 145.352 147.035 145.412 147.145 145.533C147.254 145.654 147.309 145.803 147.309 145.979C147.309 146.154 147.254 146.301 147.145 146.418C147.035 146.535 146.875 146.594 146.664 146.594C146.453 146.594 146.293 146.535 146.184 146.418C146.078 146.301 146.025 146.154 146.025 145.979ZM151.568 154.117C150.709 154.117 150.01 153.836 149.471 153.273C148.932 152.707 148.662 151.951 148.662 151.006V150.807C148.662 150.178 148.781 149.617 149.02 149.125C149.262 148.629 149.598 148.242 150.027 147.965C150.461 147.684 150.93 147.543 151.434 147.543C152.258 147.543 152.898 147.814 153.355 148.357C153.812 148.9 154.041 149.678 154.041 150.689V151.141H149.746C149.762 151.766 149.943 152.271 150.291 152.658C150.643 153.041 151.088 153.232 151.627 153.232C152.01 153.232 152.334 153.154 152.6 152.998C152.865 152.842 153.098 152.635 153.297 152.377L153.959 152.893C153.428 153.709 152.631 154.117 151.568 154.117ZM151.434 148.434C150.996 148.434 150.629 148.594 150.332 148.914C150.035 149.23 149.852 149.676 149.781 150.25H152.957V150.168C152.926 149.617 152.777 149.191 152.512 148.891C152.246 148.586 151.887 148.434 151.434 148.434ZM156.326 147.66L156.361 148.457C156.846 147.848 157.479 147.543 158.26 147.543C159.6 147.543 160.275 148.299 160.287 149.811V154H159.203V149.805C159.199 149.348 159.094 149.01 158.887 148.791C158.684 148.572 158.365 148.463 157.932 148.463C157.58 148.463 157.271 148.557 157.006 148.744C156.74 148.932 156.533 149.178 156.385 149.482V154H155.301V147.66H156.326ZM163.393 146.125V147.66H164.576V148.498H163.393V152.43C163.393 152.684 163.445 152.875 163.551 153.004C163.656 153.129 163.836 153.191 164.09 153.191C164.215 153.191 164.387 153.168 164.605 153.121V154C164.32 154.078 164.043 154.117 163.773 154.117C163.289 154.117 162.924 153.971 162.678 153.678C162.432 153.385 162.309 152.969 162.309 152.43V148.498H161.154V147.66H162.309V146.125H163.393ZM170.418 154.885H165.051V154H170.418V154.885ZM175.176 154C175.113 153.875 175.062 153.652 175.023 153.332C174.52 153.855 173.918 154.117 173.219 154.117C172.594 154.117 172.08 153.941 171.678 153.59C171.279 153.234 171.08 152.785 171.08 152.242C171.08 151.582 171.33 151.07 171.83 150.707C172.334 150.34 173.041 150.156 173.951 150.156H175.006V149.658C175.006 149.279 174.893 148.979 174.666 148.756C174.439 148.529 174.105 148.416 173.664 148.416C173.277 148.416 172.953 148.514 172.691 148.709C172.43 148.904 172.299 149.141 172.299 149.418H171.209C171.209 149.102 171.32 148.797 171.543 148.504C171.77 148.207 172.074 147.973 172.457 147.801C172.844 147.629 173.268 147.543 173.729 147.543C174.459 147.543 175.031 147.727 175.445 148.094C175.859 148.457 176.074 148.959 176.09 149.6V152.518C176.09 153.1 176.164 153.562 176.312 153.906V154H175.176ZM173.377 153.174C173.717 153.174 174.039 153.086 174.344 152.91C174.648 152.734 174.869 152.506 175.006 152.225V150.924H174.156C172.828 150.924 172.164 151.312 172.164 152.09C172.164 152.43 172.277 152.695 172.504 152.887C172.73 153.078 173.021 153.174 173.377 153.174ZM183.145 150.9C183.145 151.865 182.924 152.643 182.482 153.232C182.041 153.822 181.443 154.117 180.689 154.117C179.92 154.117 179.314 153.873 178.873 153.385V156.438H177.789V147.66H178.779L178.832 148.363C179.273 147.816 179.887 147.543 180.672 147.543C181.434 147.543 182.035 147.83 182.477 148.404C182.922 148.979 183.145 149.777 183.145 150.801V150.9ZM182.061 150.777C182.061 150.062 181.908 149.498 181.604 149.084C181.299 148.67 180.881 148.463 180.35 148.463C179.693 148.463 179.201 148.754 178.873 149.336V152.365C179.197 152.943 179.693 153.232 180.361 153.232C180.881 153.232 181.293 153.027 181.598 152.617C181.906 152.203 182.061 151.59 182.061 150.777ZM189.883 150.9C189.883 151.865 189.662 152.643 189.221 153.232C188.779 153.822 188.182 154.117 187.428 154.117C186.658 154.117 186.053 153.873 185.611 153.385V156.438H184.527V147.66H185.518L185.57 148.363C186.012 147.816 186.625 147.543 187.41 147.543C188.172 147.543 188.773 147.83 189.215 148.404C189.66 148.979 189.883 149.777 189.883 150.801V150.9ZM188.799 150.777C188.799 150.062 188.646 149.498 188.342 149.084C188.037 148.67 187.619 148.463 187.088 148.463C186.432 148.463 185.939 148.754 185.611 149.336V152.365C185.936 152.943 186.432 153.232 187.1 153.232C187.619 153.232 188.031 153.027 188.336 152.617C188.645 152.203 188.799 151.59 188.799 150.777Z" fill="black"/>
<line x1="135.5" y1="174" x2="135.5" y2="166" stroke="black"/>
<line x1="149.5" y1="194" x2="149.5" y2="167" stroke="black"/>
</svg>
